<svg xmlns="http://www.w3.org/2000/svg" width="860" height="240" viewBox="0 0 860 240">
  <defs>
    <linearGradient id="g" x1="0" x2="1">
      <stop offset="0" stop-color="#66d2ff" stop-opacity=".85" />
      <stop offset="1" stop-color="#9b7cff" stop-opacity=".85" />
    </linearGradient>
  </defs>
  <rect x="60" y="56" width="740" height="112" rx="22" fill="#0b1220" stroke="url(#g)" stroke-width="6" />
  <g fill="#1c2b4d">
    <rect x="104" y="82" width="110" height="60" rx="12" />
    <rect x="234" y="82" width="110" height="60" rx="12" />
    <rect x="364" y="82" width="110" height="60" rx="12" />
    <rect x="494" y="82" width="110" height="60" rx="12" />
    <rect x="624" y="82" width="110" height="60" rx="12" />
  </g>
  <g fill="#ffca66" opacity=".95">
    <rect x="110" y="170" width="20" height="22" rx="4" />
    <rect x="146" y="170" width="20" height="22" rx="4" />
    <rect x="182" y="170" width="20" height="22" rx="4" />
    <rect x="218" y="170" width="20" height="22" rx="4" />
    <rect x="254" y="170" width="20" height="22" rx="4" />
    <rect x="290" y="170" width="20" height="22" rx="4" />
    <rect x="326" y="170" width="20" height="22" rx="4" />
    <rect x="362" y="170" width="20" height="22" rx="4" />
    <rect x="398" y="170" width="20" height="22" rx="4" />
    <rect x="434" y="170" width="20" height="22" rx="4" />
    <rect x="470" y="170" width="20" height="22" rx="4" />
    <rect x="506" y="170" width="20" height="22" rx="4" />
    <rect x="542" y="170" width="20" height="22" rx="4" />
    <rect x="578" y="170" width="20" height="22" rx="4" />
    <rect x="614" y="170" width="20" height="22" rx="4" />
    <rect x="650" y="170" width="20" height="22" rx="4" />
    <rect x="686" y="170" width="20" height="22" rx="4" />
    <rect x="722" y="170" width="20" height="22" rx="4" />
  </g>
</svg>
